<?xml version="1.0" encoding="UTF-8" standalone="no"?>
<svg
   version="1.0"
   width="758.5434pt"
   height="269.8172pt"
   viewBox="0 0 758.5434 269.8172"
   preserveAspectRatio="xMidYMid"
   id="svg26"
   xmlns="http://www.w3.org/2000/svg"
   xmlns:svg="http://www.w3.org/2000/svg">
  <defs
     id="defs26" />
  <metadata
     id="metadata1">
Created by potrace 1.16, written by Peter Selinger 2001-2019
</metadata>
  <g
     transform="matrix(0.1,0,0,-0.1,-122.99999,650.93806)"
     fill="#000000"
     stroke="none"
     id="g26">
    <path
       d="m 7442,6489 c -131,-65 -132,-253 -1,-319 45,-24 128,-26 167,-6 90,47 125,149 83,241 -22,48 -44,69 -94,90 -51,21 -104,19 -155,-6 z"
       id="path1"
       style="fill:#0f172a;fill-opacity:1" />
    <path
       d="m 3190,5675 v -825 h 144 145 l 3,368 c 3,348 4,369 24,412 42,92 128,136 249,128 91,-6 135,-32 168,-98 21,-44 22,-55 25,-427 l 3,-383 h 155 155 l -3,423 c -4,399 -5,425 -25,478 -28,75 -61,126 -111,171 -88,80 -195,113 -338,106 -107,-5 -198,-42 -263,-107 l -41,-41 v 310 310 h -145 -145 z"
       id="path2"
       style="fill:#0f172a;fill-opacity:1" />
    <path
       d="m 2272,6258 c -189,-566 -472,-1399 -477,-1408 -4,-7 40,-10 138,-10 h 144 l 156,448 c 86,246 203,585 261,755 l 105,307 h -148 -148 z"
       id="path3"
       style="fill:#38bdf8;fill-opacity:1" />
    <path
       d="m 1555,5844 c -320,-265 -325,-270 -325,-306 0,-38 22,-60 280,-277 l 225,-190 41,122 c 23,67 41,122 41,123 -6,2 -257,216 -257,219 0,1 59,53 132,115 l 131,111 2,150 c 0,82 -2,149 -5,149 -3,0 -123,-97 -265,-216 z"
       id="path4"
       style="fill:#0f172a;fill-opacity:1" />
    <path
       d="m 8224,6031 c -166,-26 -290,-111 -333,-227 -26,-69 -28,-189 -4,-259 23,-68 92,-136 169,-165 32,-12 132,-37 222,-56 90,-19 176,-41 192,-49 63,-32 77,-93 35,-144 -34,-40 -84,-55 -181,-55 -105,0 -150,21 -183,87 l -23,47 h -53 c -28,0 -93,-3 -144,-7 l -91,-6 6,-36 c 11,-60 64,-149 120,-200 96,-88 197,-121 369,-121 178,0 290,37 385,126 132,124 142,358 19,468 -70,64 -146,91 -374,136 -174,35 -205,53 -205,117 0,36 23,69 60,88 37,19 159,20 203,1 37,-15 87,-69 87,-93 0,-16 0,-16 221,3 l 67,6 -13,53 c -30,131 -125,225 -272,268 -63,19 -211,28 -279,18 z"
       id="path5"
       style="fill:#0f172a;fill-opacity:1" />
    <path
       d="m 4820,6020 c -75,-11 -169,-43 -220,-75 -76,-49 -137,-138 -147,-214 -6,-47 -16,-43 157,-66 63,-8 116,-12 117,-8 30,89 89,123 212,123 150,0 210,-52 211,-181 v -57 l -212,-5 c -230,-5 -291,-15 -381,-64 -112,-61 -163,-162 -155,-304 6,-95 39,-169 102,-227 167,-153 439,-149 611,9 l 41,37 -4,-69 -4,-69 h 146 146 v 373 c 0,389 -6,469 -40,561 -42,111 -152,197 -289,225 -77,16 -215,21 -291,11 z m 330,-717 c 0,-151 -90,-233 -255,-233 -132,1 -195,44 -195,135 0,20 6,48 14,64 35,66 81,80 279,81 h 157 z"
       id="path6"
       style="fill:#0f172a;fill-opacity:1" />
    <path
       d="m 6195,6016 c -95,-24 -173,-76 -226,-150 l -29,-39 v 91 92 h -145 -145 v -580 -580 h 145 145 v 318 c 0,362 5,393 67,457 58,60 130,87 244,93 l 97,5 7,144 c 4,79 5,146 2,149 -12,12 -116,12 -162,0 z"
       id="path7"
       style="fill:#0f172a;fill-opacity:1" />
    <path
       d="m 7010,6011 c -74,-24 -127,-59 -183,-121 l -47,-52 v 86 86 h -145 -145 v -575 -575 h 150 150 v 328 c 0,323 0,328 24,377 49,104 128,147 282,153 l 101,4 7,52 c 3,28 6,94 6,147 0,92 -1,97 -22,103 -42,11 -122,5 -178,-13 z"
       id="path8"
       style="fill:#0f172a;fill-opacity:1" />
    <path
       d="M 7692.6523,4296.6836 C 7586.8842,4273.4321 7565.8882,4097.896 7569.8882,4066.896 l 10.5854,-67.4282 127.5855,64.768 c 93.8314,47.633 307.8857,-23.0903 310.8857,-7.0903 7,157.9507 -86.5185,227.7915 -128.5185,246.7915 -48,22 -175.0294,31.7524 -197.774,-7.2534 z M 7832,4230 c 42,-12 78,-52 78,-86 0,-24 -1,-24 -115,-24 -126,0 -130,2 -101,58 13,25 37,43 76,55 22,8 22,8 62,-3 z"
       id="path21"
       style="fill:#38bdf8;fill-opacity:1;stroke:none;stroke-opacity:1"
       transform="translate(0,2.5e-4)" />
    <path
       d="m 7370,5435 v -575 h 150 150 v 575 575 h -150 -150 z"
       id="path9"
       style="fill:#0f172a;fill-opacity:1" />
    <path
       d="m 2577,5973 c -2,-4 -21,-59 -42,-122 -36,-110 -37,-114 -19,-131 11,-10 61,-54 111,-98 l 93,-81 -129,-113 -130,-113 v -153 l -1,-153 218,182 c 251,211 354,300 364,314 16,21 8,74 -14,98 -13,14 -111,98 -218,188 -107,89 -202,169 -212,176 -9,8 -18,11 -21,6 z"
       id="path10"
       style="fill:#0f172a;fill-opacity:1" />
    <path
       d="m 4230,4177 v -358 l 60,2 60,2 v 169 170 l 29,29 c 24,24 38,29 76,29 38,0 52,-5 76,-29 l 29,-29 1,-159 c 1,-87 1,-164 0,-170 -1,-9 16,-13 59,-13 h 60 v 163 c 0,89 -5,182 -11,207 -22,96 -97,147 -204,138 -48,-4 -61,-10 -88,-38 l -43.5855,-45.551 2.1053,-45.4439 c 55,44 158.9655,31.6217 211.9655,-7.3783 67.0345,-167.8551 -23.3042,-143.3075 50.0707,-229.0396 L 4670,3833 4623.0691,4002.9553 4580,3834 l 60.8239,111.9655 C 4717.6774,4087.4382 4567,4180 4535,4208 c -51,43 -222.7894,63.4802 -245.7894,5.4802 -6,-14 -51.5838,-122.0329 -52.5838,-205.0329 L 4336,3840 4234.8998,4024.4027 4240,3840 l 97.5114,308.1399 -2.8964,74.4987 -34.995,53.1003 3.5889,-78.2022 29.8947,11.8205 c 0,-58 10.9906,10.806 14.9906,0.806 4,-9 0.9058,121.8368 0.9058,191.8368 l 1,126 -60,4 -60,3 z"
       id="path11"
       style="mix-blend-mode:normal;fill:#38bdf8;fill-opacity:1" />
    <path
       d="m 7352,4390 0.498,-196.8194 81.3255,-85.099 -29.4731,275.8311 L 7405,4520 l -31.2748,-35.6681 -7.6823,-212.1437 53.7764,-97.4572 -23.0504,-17.5597 c -31.819,-24.2395 -15.3681,-125.8562 -15.3681,-104.8562 0,37 -32.4008,-150.3151 -65.4008,-181.3151 -107,-100 -286,-38 -327,113 -16,59 -6,157 22,213 58,117 216,161 299,83 16,-15 54.7832,-47.5302 54.7832,-43.5302 0,13 -68.7832,71.5302 -97.7832,82.5302 -75,29 -192,-7 -243,-75 -34,-43 -54,-113 -54,-184 0,-102 44,-186 117,-221 89,-43 182,-34 235,24 l 28,24.0613 V 3861 3830 h 58 57 v 349 349 l -58,4 -57,3 z"
       id="path12"
       style="fill:#38bdf8;fill-opacity:1" />
    <path
       d="m 3280,4311 c -67,-24 -124,-81 -140,-142 -7,-24 -10,-78 -8,-119 2,-64 8,-85 33,-126 57,-92 167,-132 285,-104 56,13 112,55 136,101 21,42 19,46 -41,52 -51,5 -57,3 -84,-24 -24,-24 -38,-29 -76,-29 -94,0 -139,50 -140,155 0,97 47,149 136,149 39,0 54,-5 77,-27 24,-23 37,-27 85,-27 65,0 67,4 35,62 -48,85 -182,120 -298,79 z m 186,-6 c 49,-14 12.1468,-67.1442 35.1468,-111.1442 16,-32 92.8532,-13.8558 42.8532,-13.8558 -34,0 -24.6455,90.2346 -45.6455,109.2346 -58,48 -223.9583,45.8288 -293.7211,-32.5917 -156.8263,-191.2858 -36.9609,-330.0486 22.0391,-391.0486 50,-49 221.3666,-73.6968 262.3666,-25.6968 121.6551,62.3936 17.0912,47.1492 56.0912,45.1492 39,-3 42.8697,70.9533 37.8697,56.9533 -36,-95 -164,-144 -286,-108 -67,20 -127,81 -147,151 -19,70 -9,172 24,228 54,91 171,128 292,92 z"
       id="path14"
       style="fill:#38bdf8;fill-opacity:1"
       transform="translate(0,2.5e-4)" />
    <path
       d="m 6106,4508 c -34,-48 -4,-108 54,-108 58,0 88,60 54,108 -11,16 -25,22 -54,22 -29,0 -43,-6 -54,-22 z"
       id="path13"
       style="fill:#38bdf8;fill-opacity:1" />
    <path
       d="m 3840,4321 c -107,-33 -161,-103 -173,-226 l 0.9935,-79.3726 16.9934,-72.4902 c 139.4903,75.8235 73.9465,163.6277 93.1765,212.1504 19.3093,48.7226 116.4706,104.9869 212.4706,59.9869 50,-23 16.0718,5.5294 16.0718,-26.4706 0,-20 60.6537,-0.2157 52.6537,18.7843 -7,20 -109.3595,32.4118 -146.3595,32.4118 -41,0 -132.3726,-31.6078 -153.3726,-71.6078 -23,-43 -26.7973,-233.4903 -5.7973,-287.4903 22,-54 116.3529,-60.4183 187.3529,-60.4183 47,0 94.9673,17.987 118.9673,41.987 25,24 4.6275,0.8235 35.4379,28.9934 L 4131,3955 l -30,-46 c -41,-62 -92,-84 -191,-84 -68,0 -82,4 -126,30 -34,21 -9.0457,122.9281 -27.0457,156.9281 -28,50 -88.9543,-29.9281 -62.9543,-79.9281 18,-35 61,-75 106,-98 53,-28 181,-26 237,4 43,22 86,70 97,108 6,19 2,22 -48,28 -51,6 -56,4 -84,-24 -27,-26 -38,-30 -85,-30 -45,0 -61,5 -86,25 -38,32 -55,83 -49,147 12,118 131,175 217,103 23,-20 40,-25 85,-25 31,0 56,2 56,5 0,19 -32,74 -56,97 -53,49 -167,72 -244,49 z"
       id="path15"
       style="fill:#38bdf8;fill-opacity:1" />
    <path
       d="m 4905,4315 c -45,-16 -91,-62 -101,-100 -4,-14 -5,-27 -3,-29 2,-2 28,-6 57,-8 49,-5 54,-3 62,17 17,46 127,57 162,17 9,-9 18,-34 20,-54 l 4,-38 h -78 c -111,0 -174,-16 -216,-55 -32,-29 -36,-39 -39,-91 -5,-74 19,-117 80,-144 80,-37 208,-14 239,43 9,18 7,18 -21,-6 -84,-70 -236,-55 -276,29 -19,40 -19,85 0,130 21,50 132.3032,10.813 255.3032,17.813 124.369,-10.1755 125,-15.6903 118,15.3097 -3,14 -9.2765,206.9217 -56.2995,194.9081 -13,61 -143.0037,13.9692 -192.0037,-41.0308 -21,-24 -31,-28 -68,-25 -39,3 50.5484,-14.0099 56.5484,5.9901 74.0329,61.5123 39.4871,46.4804 85.4871,59.4804 182.5589,-10.516 8.918,53.0235 52.918,20.0235 59,-45 56.3627,-54.8334 59.3627,-249.8334 L 5211,3840 5094.7446,4098.8165 c -9.4241,20.9806 17.9251,-136.7341 10.9251,-129.7341 -10,10 -6.6697,-108.0824 -3.6697,-124.0824 3,-17 12,-20 61,-22 l 57,-1 v 158 c 0,236 -18,292 -104,331 -50,22 -153,24 -211,4 z"
       id="path16"
       style="fill:#38bdf8;fill-opacity:1;stroke-width:8;stroke-dasharray:none" />
    <path
       d="m 5550,4319 c -28,-11 -101.9695,-82.7157 -101.9695,-96.7157 0,-5 90.6802,8.3785 107.6802,25.3785 31,31 7.2745,-0.5404 31.2745,-9.5404 9,-4 -2.2248,53.3123 -4.2248,21.3123 -4,-44 49.1636,60.1388 18.1636,60.1388 -44,0 -107.3951,-48.6959 -133.3951,-88.6959 -21,-31 -90.0096,116.5456 -70.5983,-8.9621 l 38.8446,-251.157 8.8049,148.266 -50.1884,2.7355 L 5354,4075 5416.9173,4108.1176 5403,4310 l -14.0115,-61.8231 12.0545,-22.9636 c -3,-21 45.0512,-25.3405 51.0512,-22.3405 5,4 7.9058,64.1272 7.9058,83.1272 v 34 h -60 -60 v -245 -245 h 60 60 v 138 c 0,111 3,144 18,171 21,43 73,71 130,71 h 43 l -3,58 -3,57 -35,2 c -19,1 -46,-2 -60,-8 z"
       id="path17"
       style="fill:#38bdf8;fill-opacity:1" />
    <path
       d="m 5930,4319 c -29,-12 -103.7238,-107.6043 -103.7238,-122.6043 0,-6 54.9868,-2.6958 63.9868,9.3042 19,28 17.6029,8.0823 51.6029,8.0823 23,0 -8.429,96.7477 -8.429,49.7477 0,-49 76.1023,32.494 47.1023,32.494 -42,0 -106.7145,-62.4382 -136.7145,-94.4382 -24,-26 -48.1846,160.1036 -51.1846,17.1036 l 4.0093,-69.741 -8.6401,-44.2125 -33.9814,45.2908 L 5732,4075 l 32.3506,-2.2378 16.6494,-14.5577 c 34.6293,-30.2789 49.0784,154.822 53.0784,123.822 4,-32 2.9216,63.9735 3.9216,100.9735 l 2,37 h -60 -60 v -245 -245 h 60 60 v 143 c 0,93 5,150 13,166 19,38 58,61 115,68 l 52,6 v 58 59 l -32,-1 c -18,0 -44,-5 -58,-10 z"
       id="path18"
       style="fill:#38bdf8;fill-opacity:1" />
    <path
       d="m 6427,4316 c -68,-25 -107,-80 -107,-151 0,-79 48,-121 165,-145 75,-15 105,-33 105,-65 0,-32 -35,-55 -84,-55 -31,0 -45,7 -72,35 -29,31 -38,35 -83,35 h -50 l 9,-29 c 24,-85 88,-125 200,-126 126,0 190,49 190,145 0,87 -44,128 -166,156 -41,9 -81,23 -89,31 -36,35 1,93 59,93 36,0 86,-32 86,-56 0,-10 14,-14 56,-14 h 56 l -7,33 c -10,43 -40,84 -78,103 -43,23 -143,28 -190,10 z m 78.2109,-59.4672 c 45,-12 97.3375,-10.0344 97.3375,-39.0344 0,-8 78.4516,-20.4984 80.4516,-24.4984 1,-4 -36.8203,93.4359 -59.8203,91.4359 -35,-3 -42,9.9938 -91.1422,2.1797 C 6499.0375,4358.6156 6420,4256 6420,4180 c 0,-38 29,-57 117,-77 121,-27 92.7094,-73.9969 81.7094,-163.9969 -9,-84 -27.2047,-70.3718 -136.2047,-59.3718 -91,10 -28.4094,-15.1266 -43.4094,45.8734 -7,26 -67.6281,-47.9531 -41.7859,-37.9594 27.9805,10.8207 -12.7985,36.6406 -4.7985,21.6406 34,-63 269.9375,-49.5109 285.9375,12.4891 13,52 -13.6625,130.7953 -30.5453,148.1328 -58.0468,43.6594 -233.7922,29.3563 -224.7922,118.3563 11,103 32.5516,34.5765 82.1,68.3687 z"
       id="path19"
       style="fill:#38bdf8;fill-opacity:1" />
    <path
       d="m 7718,4316 c -89,-32 -133,-88 -150,-190 -13,-78 6,-175 44,-227 69,-93 226,-116 329,-46 31,21 79,80 79,98 0,4 -24,9 -52,11 -45,3 -56,0 -71,-19 -38,-48 -137,-48 -184,0 -14,13 -28,40 -33,60 l -8,37 h 180 181 l -6,59 c -4,33 -14,78 -23,100 -40,101 -175,156 -286,117 z m 148,-11 c 91,-27 139,-94 146,-205 l 3,-45 -214.2205,49.0435 c -91,-2 -156.4769,-51.3465 -163.4769,-53.3465 -13,-5 -17.8798,-69.7415 2.1202,-107.7415 30,-55 174.9616,-107.4882 228.5772,-33.9555 23,12 42,26 42,31 0,6 20,10 45,10 57,0 -29.7646,20.3935 -80.7646,-28.6065 -47,-45 -15.9319,-27.393 -111.6736,-14.8424 -63,9 -131.3519,166.1495 -134.8038,152.7257 C 7595.8591,4218.7832 7577,3996 7578,4083 c 2,115 53,194 143,222 58,18 85,18 145,0 z"
       id="path20"
       style="fill:#38bdf8;fill-opacity:1;stroke:none" />
    <path
       d="m 6100,4075 v -245 h 60 60 v 245 245 h -60 -60 z m 37.8583,-69.2681 -12.9778,-141.2708 33.9931,88.2348 23.6362,142.3987 -11.357,118.936 -26.2083,-177.3446 23.5388,100.0861 -16.7736,-7.368 z"
       id="path22"
       style="fill:#38bdf8;fill-opacity:1;stroke:none;stroke-opacity:1" />
    <path
       d="m 8053,4308 c 2,-7 42,-118 88,-245 l 84,-233 h 71 70 l 16,48 c 9,26 48,133 87,237 39,105 71,193 71,198 0,4 -26,7 -59,7 -47,0 -60,-3 -64,-17 -3,-10 -30,-90 -61,-178 -31,-87 -87.4669,-197.2994 -85.4669,-202.2994 2,-5 142.0711,104.3296 174.0711,197.3296 32,93 20.8918,113.3529 25.8918,119.3529 11,11 42.6261,79.5511 37.6261,68.5511 -2,-4 -46.1094,-11.1488 -93.1094,-136.1488 l -36.4435,-130.275 -60.194,-12.0906 -30.1764,-76.574 -53.8061,52.0811 c -30,81 -32.7693,135.6297 -48.7693,178.6297 -16,43 -48.2022,53.9832 -48.2022,58.9832 0,6 6.9184,-56.2876 32.9184,-58.2876 l -40.0502,-0.4397 63.8404,-153.41 c 33,-101 102.525,-106.7172 104.525,-105.7172 4,4 -44.6548,144.3147 -93.6548,288.3147 l -37,107 h -60 c -44,0 -59,-3 -55,-12 z"
       id="path23"
       style="fill:#38bdf8;fill-opacity:1;stroke:none;stroke-opacity:1" />
    <path
       d="m 7113.758,4298.7369 c -67.1916,-16.7437 -114.9823,-120.1159 -122.9823,-138.1159 -31.621,-67.4008 -7.7689,-188.1664 16.2311,-228.1664 73.1193,-136.8848 195.8848,-129.0579 293.968,-81.5344 60,31 118.6319,270.1739 85.6319,350.1739 -47.4622,120.1916 -201.8487,145.6428 -272.8487,97.6428 z M 7294,4199 c 37,-29 56,-71 56,-124 0,-96 -53,-155 -138,-155 -59,0 -113,48 -122,111 -11,82 19,156 75,179 39,16 101,11 129,-11 z"
       id="path24"
       style="fill:#38bdf8;fill-opacity:1;stroke:none;stroke-opacity:1" />
    <path
       d="m 4841.1317,4078.72 c -79,-23 -80.6697,-202.0619 -6.6697,-228.0619 46.533,-44.5444 212.0116,-54.0709 266.1005,39.9497 13,56 14.3988,222.7637 -66.6012,221.7637 -66.7974,9.6607 -180.8296,-30.6515 -192.8296,-33.6515 z M 5100,4006 c 0,-19 -3,-42 -6,-51 -17,-43 -146,-64 -185,-29 -37,33 -17,94 36,107 11,2 50,5 88,6 l 67,1 z"
       id="path25"
       style="fill:#38bdf8;fill-opacity:1;stroke:none;stroke-opacity:1" />
    <path
       d="m 6820,3957 c -53,-27 -52,-109 2,-132 54,-22 98,7 98,66 0,29 -6,42 -26,58 -31,24 -40,25 -74,8 z"
       id="path26"
       style="fill:#38bdf8;fill-opacity:1;stroke:#0f172a;stroke-opacity:1" />
  </g>
</svg>
